<svg width="26" height="19" viewBox="0 0 26 19" fill="none" xmlns="http://www.w3.org/2000/svg">
<path d="M0 2.5C0 1.11929 1.11929 0 2.5 0H23.5C24.8807 0 26 1.11929 26 2.5C26 3.88071 24.8807 5 23.5 5H2.5C1.11929 5 0 3.88071 0 2.5Z" fill="#1F1F1F"/>
<path d="M0 16.5C0 15.1193 1.11929 14 2.5 14H23.5C24.8807 14 26 15.1193 26 16.5C26 17.8807 24.8807 19 23.5 19H2.5C1.11929 19 0 17.8807 0 16.5Z" fill="#1F1F1F"/>
<path d="M0 9.5C0 8.11929 1.11929 7 2.5 7H9.5C10.8807 7 12 8.11929 12 9.5C12 10.8807 10.8807 12 9.5 12H2.5C1.11929 12 0 10.8807 0 9.5Z" fill="#1F1F1F"/>
<path d="M14 9.5C14 8.11929 15.1193 7 16.5 7H23.5C24.8807 7 26 8.11929 26 9.5C26 10.8807 24.8807 12 23.5 12H16.5C15.1193 12 14 10.8807 14 9.5Z" fill="#1F1F1F"/>
</svg>
