<svg width="17" height="17" viewBox="0 0 17 17" fill="none" xmlns="http://www.w3.org/2000/svg">
<path d="M0.860647 0.860647C1.33598 0.385318 2.10664 0.385318 2.58197 0.860647L16.3525 14.6312C16.8279 15.1065 16.8279 15.8772 16.3525 16.3525C15.8772 16.8279 15.1065 16.8279 14.6312 16.3525L0.860648 2.58197C0.385318 2.10664 0.385318 1.33598 0.860647 0.860647Z" fill="#363636"/>
<path d="M0.860654 16.3525C0.385325 15.8772 0.385324 15.1065 0.860654 14.6312L14.6312 0.860649C15.1065 0.38532 15.8772 0.385319 16.3525 0.860649C16.8279 1.33598 16.8279 2.10664 16.3525 2.58197L2.58197 16.3525C2.10665 16.8279 1.33598 16.8279 0.860654 16.3525Z" fill="#363636"/>
</svg>
